# xmcd
#
# Track frame offsets: 
#        150
#        22341
#        40687
#        57864
#        81607
#        98757
#        120080
#        143687
#        165308
#        186980
#        202983
#        223883
#
# Disc length: 3193 seconds
#
# Revision: 0
# Processed by: cddbd v1.5.2PL0 Copyright (c) Steve Scherf et al.
# Submitted via: ExactAudioCopy v1.2
#
DISCID=a30c770c
DTITLE=Bernard Allison - Let It Go
DYEAR=2018
DGENRE=Blues
TTITLE0=Crusin for a Bluesin
TTITLE1=Same Ole Feeling
TTITLE2=Backdoor Man
TTITLE3=Let It Go
TTITLE4=Night Train
TTITLE5=Kiddeo
TTITLE6=Leave Your Ego
TTITLE7=Blues Party
TTITLE8=Hey Lady
TTITLE9=Look out Mabel
TTITLE10=You're Gonna Need Me
TTITLE11=Castle
EXTD=
EXTT0=
EXTT1=
EXTT2=
EXTT3=
EXTT4=
EXTT5=
EXTT6=
EXTT7=
EXTT8=
EXTT9=
EXTT10=
EXTT11=
PLAYORDER=
